<?xml version="1.0" encoding="UTF-8"?>
<svg id="Capa_2" data-name="Capa 2" xmlns="http://www.w3.org/2000/svg" viewBox="0 0 141.04 79.43">
  <defs>
    <style>
      .cls-1 {
        fill: #000;
        stroke-width: 0px;
      }
    </style>
  </defs>
  <g id="Capa_2-2" data-name="Capa 2">
    <g>
      <polygon class="cls-1" points="58.6 11.5 4.2 31.37 29.89 38.58 58.6 11.5"/>
      <polygon class="cls-1" points="114.13 40.24 90.21 0 65.81 8.93 89.84 49.1 114.13 40.24"/>
      <polygon class="cls-1" points="58.75 16.96 80.13 52.66 73.51 55.06 62.91 58.9 57.72 60.78 42.86 35.95 58.75 16.96"/>
      <polygon class="cls-1" points="141.04 30.47 126.6 5.19 107.09 11.81 122.32 37.26 141.04 30.47"/>
      <polygon class="cls-1" points="57.72 60.78 80.13 52.66 80.09 79.43 57.71 79.43 57.72 60.78"/>
      <polygon class="cls-1" points="89.84 49.02 114.13 40.14 114.13 70.6 89.83 79.43 89.84 49.02"/>
      <polygon class="cls-1" points="122.32 37.26 141.04 30.47 140.78 51.92 122.33 58.64 122.32 37.26"/>
      <polygon class="cls-1" points="32.6 69.89 25.04 57.26 35.97 44.19 48.04 64.32 32.6 69.89"/>
      <polygon class="cls-1" points="32.6 69.89 48.04 64.32 48.03 79.43 32.62 79.43 32.6 69.89"/>
      <polygon class="cls-1" points="18.66 64.92 23.6 73.19 18.24 75.15 6.47 79.43 18.66 64.92"/>
      <polygon class="cls-1" points="23.6 73.19 6.47 79.43 23.25 79.43 23.6 73.19"/>
      <polygon class="cls-1" points="58.6 11.5 0 51.98 21.23 55.89 58.6 11.5"/>
    </g>
  </g>
</svg>