<?xml version="1.0" encoding="UTF-8"?>
<svg id="Capa_2" data-name="Capa 2" xmlns="http://www.w3.org/2000/svg" viewBox="0 0 141.04 141.04">
  <defs>
    <style>
      .cls-1 {
        fill: #fff;
        stroke-width: 0px;
      }
    </style>
  </defs>
  <g id="Capa_2-2" data-name="Capa 2">
    <g>
      <polygon class="cls-1" points="58.6 42.3 4.2 62.17 29.89 69.38 58.6 42.3"/>
      <polygon class="cls-1" points="114.13 71.04 90.21 30.8 65.81 39.73 89.84 79.9 114.13 71.04"/>
      <polygon class="cls-1" points="58.75 47.76 80.13 83.46 73.51 85.86 62.91 89.7 57.72 91.58 42.86 66.75 58.75 47.76"/>
      <polygon class="cls-1" points="141.04 61.27 126.6 35.99 107.09 42.61 122.32 68.06 141.04 61.27"/>
      <polygon class="cls-1" points="57.72 91.58 80.13 83.46 80.09 110.23 57.71 110.23 57.72 91.58"/>
      <polygon class="cls-1" points="89.84 79.82 114.13 70.94 114.13 101.4 89.83 110.23 89.84 79.82"/>
      <polygon class="cls-1" points="122.32 68.06 141.04 61.27 140.78 82.72 122.33 89.44 122.32 68.06"/>
      <polygon class="cls-1" points="32.6 100.69 25.04 88.06 35.97 74.99 48.04 95.12 32.6 100.69"/>
      <polygon class="cls-1" points="32.6 100.69 48.04 95.12 48.03 110.23 32.62 110.23 32.6 100.69"/>
      <polygon class="cls-1" points="18.66 95.72 23.6 103.99 18.24 105.95 6.47 110.23 18.66 95.72"/>
      <polygon class="cls-1" points="23.6 103.99 6.47 110.23 23.25 110.23 23.6 103.99"/>
      <polygon class="cls-1" points="58.6 42.3 0 82.78 21.23 86.69 58.6 42.3"/>
    </g>
  </g>
</svg>